<svg width="30" height="30" viewBox="0 0 30 30" fill="none" xmlns="http://www.w3.org/2000/svg">
<path d="M27.4998 10.267C27.357 10.6758 27.0401 10.9067 26.6828 11.1205C23.3962 13.0836 20.1128 15.052 16.8327 17.0259C15.6108 17.7584 14.3889 17.756 13.167 17.0188C9.82991 15.0144 6.49262 13.0099 3.15511 11.0051C2.94489 10.8835 2.76621 10.7142 2.63349 10.5109C2.33943 10.0225 2.53569 9.42852 3.06317 9.11033C4.18379 8.43483 5.30593 7.76107 6.42959 7.08904C8.66908 5.74848 10.9068 4.40617 13.1429 3.06213C14.3902 2.31034 15.6258 2.31491 16.8724 3.06213C20.1574 5.04168 23.447 7.01602 26.7415 8.98514C27.089 9.19313 27.3753 9.43112 27.4998 9.82756V10.267Z" fill="#F1416C"/>
<path d="M27.5 14.807C27.3696 15.2015 27.0833 15.4375 26.7358 15.6455C23.0871 17.8259 19.4422 20.0141 15.8013 22.2101C15.238 22.5511 14.7659 22.5511 14.2 22.2101C10.5121 19.9743 6.80728 17.7574 3.10768 15.5406C2.63952 15.2576 2.42827 14.8338 2.52738 14.3839C2.55982 14.2192 2.63176 14.0649 2.73701 13.9343C2.84226 13.8036 2.97768 13.7004 3.13162 13.6337C3.28555 13.5669 3.4534 13.5385 3.62073 13.5509C3.78807 13.5634 3.94987 13.6163 4.09224 13.7051C4.88576 14.1674 5.66949 14.6473 6.45649 15.1193C9.23021 16.7837 12.0031 18.4497 14.775 20.1171C14.9426 20.2182 15.0613 20.2221 15.2315 20.1171C18.7524 17.9954 22.2775 15.8772 25.8067 13.7625C26.1842 13.5356 26.5546 13.4678 26.9588 13.6758C27.247 13.8238 27.3787 14.0898 27.5013 14.3656L27.5 14.807Z" fill="#F1416C"/>
<path d="M23.1041 27.5008C22.4827 27.2772 22.2564 26.8208 22.2838 26.1727C22.3099 25.5826 22.289 24.9912 22.289 24.3763C21.6148 24.3763 20.9667 24.3796 20.3186 24.3763C20.1727 24.3787 20.0272 24.3607 19.8863 24.3229C19.6719 24.2536 19.4859 24.1163 19.3565 23.9318C19.2271 23.7473 19.1613 23.5257 19.1691 23.3005C19.1753 23.0664 19.2617 22.8415 19.4139 22.6635C19.566 22.4855 19.7747 22.3651 20.005 22.3225C20.2142 22.2948 20.4252 22.2841 20.6361 22.2905C21.1786 22.2866 21.7205 22.2905 22.2897 22.2905V20.8795C22.2897 20.652 22.2819 20.4231 22.2936 20.1968C22.3236 19.6028 22.7833 19.1575 23.3473 19.1666C23.9289 19.1758 24.3709 19.6354 24.3755 20.2444C24.3801 20.8384 24.3755 21.4318 24.3755 22.0251V22.2892H25.7122C25.9156 22.2892 26.119 22.2957 26.3218 22.2892C26.9223 22.267 27.2966 22.5657 27.5033 23.1081V23.5476C27.2914 24.1638 26.8552 24.4194 26.2123 24.3815C25.8315 24.3594 25.4487 24.3776 25.0667 24.3776H24.3762C24.3762 25.0101 24.3553 25.6119 24.3814 26.2111C24.4101 26.854 24.1623 27.2902 23.5461 27.5021L23.1041 27.5008Z" fill="#F1416C"/>
<path d="M16.0378 26.0786C16.0424 27.0358 15.1817 27.5261 14.4541 27.101C13.4936 26.5396 12.5436 25.9593 11.589 25.3862C8.76056 23.6909 5.93207 21.9933 3.10357 20.2932C2.63607 20.0128 2.42742 19.5877 2.52914 19.1359C2.56167 18.9735 2.63276 18.8213 2.73643 18.6922C2.8401 18.563 2.97331 18.4607 3.12481 18.3938C3.27631 18.327 3.44167 18.2975 3.60695 18.308C3.77222 18.3184 3.93256 18.3684 4.07444 18.4538C4.75842 18.845 5.42935 19.2597 6.10485 19.6653C9.19894 21.5231 12.293 23.3786 15.3871 25.2316C15.7685 25.4599 16.0333 25.7454 16.0378 26.0786Z" fill="#F1416C"/>
</svg>
