<svg width="30" height="30" viewBox="0 0 30 30" fill="none" xmlns="http://www.w3.org/2000/svg">
<path d="M20.0625 2.5H10C8.01088 2.5 6.10322 3.29018 4.6967 4.6967C3.29018 6.10322 2.5 8.01088 2.5 10V20.125C2.53279 22.0924 3.33742 23.9681 4.74041 25.3477C6.14339 26.7273 8.03235 27.5003 10 27.5H20.125C22.0816 27.4675 23.948 26.6715 25.3259 25.2819C26.7038 23.8924 27.484 22.0193 27.5 20.0625V10C27.5001 8.02166 26.7185 6.12341 25.3254 4.71867C23.9324 3.31393 22.0408 2.51649 20.0625 2.5V2.5ZM22.4 20.9H7.6C7.35136 20.9 7.1129 20.8012 6.93709 20.6254C6.76127 20.4496 6.6625 20.2111 6.6625 19.9625C6.6625 19.7139 6.76127 19.4754 6.93709 19.2996C7.1129 19.1238 7.35136 19.025 7.6 19.025H22.4C22.6486 19.025 22.8871 19.1238 23.0629 19.2996C23.2387 19.4754 23.3375 19.7139 23.3375 19.9625C23.3375 20.2111 23.2387 20.4496 23.0629 20.6254C22.8871 20.8012 22.6486 20.9 22.4 20.9ZM22.4 15.9H7.6C7.35136 15.9 7.1129 15.8012 6.93709 15.6254C6.76127 15.4496 6.6625 15.2111 6.6625 14.9625C6.6625 14.7139 6.76127 14.4754 6.93709 14.2996C7.1129 14.1238 7.35136 14.025 7.6 14.025H22.4C22.6486 14.025 22.8871 14.1238 23.0629 14.2996C23.2387 14.4754 23.3375 14.7139 23.3375 14.9625C23.3375 15.2111 23.2387 15.4496 23.0629 15.6254C22.8871 15.8012 22.6486 15.9 22.4 15.9ZM22.4 10.9H7.6C7.35136 10.9 7.1129 10.8012 6.93709 10.6254C6.76127 10.4496 6.6625 10.2111 6.6625 9.9625C6.6625 9.71386 6.76127 9.4754 6.93709 9.29959C7.1129 9.12377 7.35136 9.025 7.6 9.025H22.4C22.6486 9.025 22.8871 9.12377 23.0629 9.29959C23.2387 9.4754 23.3375 9.71386 23.3375 9.9625C23.3375 10.2111 23.2387 10.4496 23.0629 10.6254C22.8871 10.8012 22.6486 10.9 22.4 10.9Z" fill="#7239EA"/>
</svg>
