<svg width="20" height="20" viewBox="0 0 20 20" fill="none" xmlns="http://www.w3.org/2000/svg">
<path opacity="0.3" d="M12.4167 17.4333H5.22501C4.26648 17.4158 3.35393 17.0192 2.68705 16.3305C2.02018 15.6418 1.65329 14.7169 1.66667 13.7583V6.33329C1.65331 5.37549 2.02046 4.4515 2.68757 3.76409C3.35467 3.07667 4.26723 2.68198 5.22501 2.66663H12.4167C13.3744 2.68198 14.287 3.07667 14.9541 3.76409C15.6212 4.4515 15.9884 5.37549 15.975 6.33329V11.05C15.985 11.1353 15.9769 11.2217 15.9511 11.3036C15.9253 11.3856 15.8825 11.4611 15.8254 11.5253C15.7684 11.5895 15.6983 11.6408 15.62 11.676C15.5416 11.7112 15.4567 11.7294 15.3708 11.7294C15.285 11.7294 15.2 11.7112 15.1217 11.676C15.0433 11.6408 14.9733 11.5895 14.9162 11.5253C14.8592 11.4611 14.8163 11.3856 14.7906 11.3036C14.7648 11.2217 14.7566 11.1353 14.7667 11.05V6.33329C14.7734 5.70182 14.53 5.09333 14.0898 4.64058C13.6495 4.18784 13.0481 3.92759 12.4167 3.91663H5.22501C4.5936 3.92759 3.99215 4.18784 3.55189 4.64058C3.11164 5.09333 2.86831 5.70182 2.87501 6.33329V13.7583C2.86828 14.3906 3.11134 14.9999 3.55137 15.454C3.9914 15.9081 4.59284 16.1702 5.22501 16.1833H12.4167C12.8944 16.1797 13.3596 16.0301 13.7499 15.7546C14.1402 15.479 14.4368 15.0906 14.6 14.6416C14.6286 14.5664 14.6718 14.4975 14.7272 14.4391C14.7826 14.3806 14.8491 14.3338 14.9227 14.3012C14.9964 14.2687 15.0757 14.2511 15.1562 14.2494C15.2367 14.2478 15.3168 14.2621 15.3917 14.2916C15.4684 14.3243 15.5379 14.3718 15.5962 14.4315C15.6545 14.4911 15.7005 14.5616 15.7314 14.6391C15.7624 14.7165 15.7778 14.7993 15.7767 14.8826C15.7756 14.966 15.758 15.0484 15.725 15.125C15.475 15.8013 15.024 16.385 14.4326 16.7977C13.8413 17.2103 13.1378 17.4321 12.4167 17.4333Z" fill="#FF5722"/>
<path d="M15.3333 12.7167C15.2487 12.7155 15.1652 12.6972 15.0878 12.6629C15.0105 12.6285 14.9409 12.5787 14.8833 12.5167L12.5 10C12.3975 9.88542 12.3409 9.73707 12.3409 9.58334C12.3409 9.4296 12.3975 9.28126 12.5 9.16667C12.6172 9.04963 12.776 8.98389 12.9417 8.98389C13.1073 8.98389 13.2661 9.04963 13.3833 9.16667L15.3333 11.2L17.2833 9.16667C17.4005 9.04963 17.5594 8.98389 17.725 8.98389C17.8906 8.98389 18.0495 9.04963 18.1667 9.16667C18.2837 9.28386 18.3495 9.44271 18.3495 9.60834C18.3495 9.77396 18.2837 9.93282 18.1667 10.05L15.7667 12.55C15.649 12.6591 15.4938 12.7188 15.3333 12.7167Z" fill="#FF5722"/>
</svg>
