<svg width="30" height="30" viewBox="0 0 30 30" fill="none" xmlns="http://www.w3.org/2000/svg">
<path d="M17.7375 7.50001C18.7092 7.49989 19.6586 7.79167 20.4625 8.33751C19.6586 7.79167 18.7092 7.49989 17.7375 7.50001ZM20.4625 8.33751C21.1246 8.78251 21.667 9.38355 22.0419 10.0877C22.4169 10.7918 22.6128 11.5773 22.6125 12.375V19.675V12.35C22.6128 11.5523 22.4169 10.7668 22.0419 10.0627C21.667 9.35856 21.1246 8.75751 20.4625 8.31251V8.33751ZM22.5625 2.50001H12.2625C11.1625 2.49794 10.0939 2.86701 9.22968 3.54752C8.36543 4.22804 7.75601 5.1802 7.5 6.25001H17.7125C19.3359 6.25332 20.8919 6.89969 22.0399 8.04763C23.1878 9.19558 23.8342 10.7516 23.8375 12.375V19.4875C24.8839 19.2233 25.8122 18.6176 26.4756 17.7663C27.139 16.915 27.4995 15.8668 27.5 14.7875V7.35001C27.4951 6.70711 27.3634 6.07149 27.1125 5.47957C26.8615 4.88764 26.4963 4.35105 26.0376 3.90051C25.5789 3.44998 25.0359 3.09437 24.4396 2.85405C23.8433 2.61373 23.2054 2.49342 22.5625 2.50001V2.50001ZM22.5625 12.375V19.8125C22.5625 21.1054 22.0489 22.3454 21.1346 23.2597C20.2204 24.1739 18.9804 24.6875 17.6875 24.6875H16.15C15.9285 24.6846 15.7097 24.7368 15.5134 24.8393C15.317 24.9419 15.1492 25.0916 15.025 25.275L13.9 26.8625C13.7526 27.074 13.5563 27.2467 13.3277 27.3659C13.0992 27.4852 12.8453 27.5474 12.5875 27.5474C12.3297 27.5474 12.0758 27.4852 11.8473 27.3659C11.6187 27.2467 11.4224 27.074 11.275 26.8625L10.15 25.275C10.0258 25.0916 9.85798 24.9419 9.66162 24.8393C9.46526 24.7368 9.2465 24.6846 9.025 24.6875H7.5C6.20808 24.6842 4.97003 24.1695 4.0565 23.256C3.14297 22.3425 2.6283 21.1044 2.625 19.8125V12.35C2.63488 11.0624 3.15245 9.83078 4.06527 8.92264C4.97808 8.0145 6.21239 7.50327 7.5 7.50001H17.8C19.0778 7.51638 20.298 8.03379 21.1981 8.94087C22.0981 9.84795 22.6061 11.0722 22.6125 12.35L22.5625 12.375ZM9.4 16.25C9.4 16.0176 9.33109 15.7904 9.20198 15.5972C9.07287 15.404 8.88936 15.2534 8.67465 15.1645C8.45995 15.0755 8.2237 15.0523 7.99577 15.0976C7.76784 15.1429 7.55848 15.2548 7.39415 15.4192C7.22982 15.5835 7.11792 15.7929 7.07258 16.0208C7.02724 16.2487 7.05051 16.485 7.13944 16.6997C7.22837 16.9144 7.37898 17.0979 7.57221 17.227C7.76543 17.3561 7.99261 17.425 8.225 17.425C8.53562 17.4218 8.8326 17.2969 9.05225 17.0773C9.27191 16.8576 9.39675 16.5606 9.4 16.25V16.25ZM13.75 16.25C13.75 16.0171 13.6807 15.7894 13.5511 15.5959C13.4214 15.4024 13.2372 15.2519 13.0217 15.1633C12.8063 15.0748 12.5694 15.0522 12.3411 15.0986C12.1129 15.1449 11.9035 15.2581 11.7397 15.4237C11.5759 15.5893 11.465 15.7998 11.4211 16.0285C11.3772 16.2573 11.4022 16.4939 11.4931 16.7084C11.5839 16.9229 11.7365 17.1055 11.9313 17.2331C12.1262 17.3607 12.3546 17.4275 12.5875 17.425C12.897 17.4217 13.1926 17.2965 13.4103 17.0765C13.6279 16.8565 13.75 16.5595 13.75 16.25V16.25ZM18.125 16.25C18.125 16.0176 18.0561 15.7904 17.927 15.5972C17.7979 15.404 17.6144 15.2534 17.3997 15.1645C17.185 15.0755 16.9487 15.0523 16.7208 15.0976C16.4928 15.1429 16.2835 15.2548 16.1192 15.4192C15.9548 15.5835 15.8429 15.7929 15.7976 16.0208C15.7522 16.2487 15.7755 16.485 15.8644 16.6997C15.9534 16.9144 16.104 17.0979 16.2972 17.227C16.4904 17.3561 16.7176 17.425 16.95 17.425C17.2628 17.425 17.563 17.3016 17.7853 17.0816C18.0076 16.8616 18.1342 16.5628 18.1375 16.25H18.125Z" fill="#3E35F1"/>
</svg>
