<svg width="24" height="24" viewBox="0 0 24 24" fill="none" xmlns="http://www.w3.org/2000/svg">
<path d="M14.06 3.23009L15.93 6.49009C15.999 6.61684 16.0946 6.72716 16.2102 6.81347C16.3259 6.89978 16.4588 6.96003 16.6 6.99009L20.2 7.81009C20.8225 7.96436 21.3597 8.35658 21.6962 8.90253C22.0328 9.44848 22.1418 10.1046 22 10.7301C21.9095 11.1393 21.7207 11.5203 21.45 11.8401L19 14.7101C18.8185 14.9433 18.7295 15.2353 18.75 15.5301L19.11 19.2901C19.1812 19.9278 19.0004 20.568 18.6062 21.0743C18.212 21.5805 17.6356 21.9128 17 22.0001C16.5894 22.039 16.1758 21.97 15.8 21.8001L12.4 20.2701C12.1308 20.1601 11.8292 20.1601 11.56 20.2701L8.18998 21.7601C7.89704 21.8897 7.58112 21.9594 7.26083 21.965C6.94054 21.9706 6.62237 21.912 6.32508 21.7927C6.02778 21.6735 5.75737 21.4959 5.52979 21.2704C5.30222 21.045 5.12207 20.7763 4.99998 20.4801C4.83683 20.0919 4.77158 19.6695 4.80998 19.2501L5.16998 15.4901C5.18419 15.3437 5.16943 15.1959 5.12654 15.0552C5.08364 14.9145 5.01345 14.7837 4.91998 14.6701L2.47998 11.8001C2.06711 11.3018 1.86351 10.6629 1.912 10.0176C1.96049 9.37238 2.25728 8.77105 2.73998 8.34009C3.02673 8.08687 3.36944 7.90524 3.73998 7.81009L7.36998 7.00009C7.50477 6.96377 7.63046 6.89962 7.73897 6.81179C7.84747 6.72395 7.93638 6.61437 7.99998 6.49009L9.90998 3.23009C10.0628 2.95216 10.2698 2.70773 10.5189 2.51128C10.7679 2.31483 11.0538 2.17036 11.3596 2.08643C11.6655 2.0025 11.9851 1.98082 12.2995 2.02268C12.6139 2.06453 12.9167 2.16907 13.19 2.33009C13.5516 2.55146 13.851 2.86117 14.06 3.23009Z" fill="#F7C000"/>
</svg>
