<svg width="24" height="24" viewBox="0 0 24 24" fill="none" xmlns="http://www.w3.org/2000/svg">
<path d="M13.6986 3.43742L13.6974 3.43547C13.5239 3.12905 13.2754 2.87165 12.9754 2.6873C12.751 2.55559 12.5025 2.47004 12.2445 2.4357C11.9854 2.40121 11.722 2.41907 11.4699 2.48825C11.2178 2.55742 10.9822 2.67649 10.7769 2.8384C10.5717 3.00031 10.401 3.20177 10.2751 3.43084L10.2696 3.4408L10.2695 3.44073L8.36497 6.69137C8.27531 6.8627 8.1515 7.01391 8.00113 7.13564C7.84742 7.26008 7.66935 7.35095 7.4784 7.40241L7.46961 7.40478L7.46072 7.40676L3.83749 8.21525C3.53345 8.29434 3.25224 8.44383 3.0166 8.65169C2.61487 9.01077 2.36787 9.51154 2.3275 10.0489C2.28715 10.5858 2.45623 11.1174 2.79921 11.5323L5.23743 14.4002L5.24173 14.4053L5.24169 14.4053C5.36994 14.5611 5.46624 14.7407 5.52509 14.9337C5.58392 15.1267 5.60418 15.3293 5.58472 15.5301L5.58475 15.5298L5.16998 15.4901L5.5847 15.5304L13.6986 3.43742ZM13.6986 3.43742L15.5664 6.69373L13.6986 3.43742ZM21.45 11.8401L19 14.7101M21.45 11.8401C21.7207 11.5203 21.9095 11.1393 22 10.7301C22.1418 10.1046 22.0328 9.44848 21.6963 8.90253C21.3597 8.35658 20.8225 7.96436 20.2 7.81009M21.45 11.8401L21.1331 11.5696L21.1326 11.5701L21.132 11.5709L21.45 11.8401ZM19 14.7101L20.2 7.81009M19 14.7101C18.8185 14.9433 18.7295 15.2353 18.75 15.5301L19 14.7101ZM20.2 7.81009L20.0998 8.21453C20.101 8.21483 20.1022 8.21513 20.1034 8.21543L20.1074 8.21636L20.2 7.81009ZM5.22491 19.2881L4.80998 19.2501L5.22475 19.2898L5.22484 19.2889C5.22486 19.2886 5.22488 19.2884 5.22491 19.2881ZM16.9519 21.5861C16.9491 21.5865 16.9462 21.5869 16.9433 21.5873L17 22.0001L16.9607 21.5853C16.9578 21.5856 16.9549 21.5858 16.9519 21.5861ZM16.51 7.39695C16.5111 7.39717 16.5121 7.3974 16.5132 7.39762L16.6 6.99009L16.5074 7.39636L16.51 7.39695Z" fill="white" stroke="#E1E3EA" stroke-width="0.833333"/>
</svg>
